/* XPM */
static char *bitcoin16[] = {
/* columns rows colors chars-per-pixel */
"16 16 205 2 ",
"   c #1B1F1E",
".  c #1E1C1D",
"X  c #1D1F1C",
"o  c #1E1F1D",
"O  c #20191E",
"+  c #201B1F",
"@  c #211B1F",
"#  c #1E201D",
"$  c #1F201F",
"%  c #20241D",
"&  c #222A1E",
"*  c #28301F",
"=  c #1D1C20",
"-  c #251B22",
";  c #221D21",
":  c #201E20",
">  c #221E20",
",  c #271C22",
"<  c #271F24",
"1  c #281822",
"2  c #2B1925",
"3  c #281E25",
"4  c #2E1E28",
"5  c #361528",
"6  c #371729",
"7  c #3B1B2E",
"8  c #3D1B2E",
"9  c #1F2020",
"0  c #202120",
"q  c #222321",
"w  c #222520",
"e  c #222620",
"r  c #232522",
"t  c #242522",
"y  c #262024",
"u  c #252224",
"i  c #272325",
"p  c #2A2423",
"a  c #282324",
"s  c #262825",
"d  c #272B24",
"f  c #292C26",
"g  c #2D2329",
"h  c #3B202F",
"j  c #342F2B",
"k  c #2B3421",
"l  c #2D3723",
"z  c #2E3526",
"x  c #2E3626",
"c  c #2F3627",
"v  c #2F3924",
"b  c #2F342A",
"n  c #323F25",
"m  c #333C29",
"M  c #3C2030",
"N  c #3A2A32",
"B  c #3B2A32",
"V  c #40162F",
"C  c #421630",
"Z  c #481532",
"A  c #481733",
"S  c #4B1534",
"D  c #4A1634",
"F  c #471A34",
"G  c #4B1935",
"H  c #492637",
"J  c #4D2639",
"K  c #4D283B",
"L  c #334025",
"P  c #334026",
"I  c #354126",
"U  c #354326",
"Y  c #354227",
"T  c #37412C",
"R  c #38442A",
"E  c #3F4F2C",
"W  c #3C4533",
"Q  c #3D4634",
"!  c #43562E",
"~  c #43562F",
"^  c #44572F",
"/  c #43582C",
"(  c #445A2C",
")  c #45592F",
"_  c #465C30",
"`  c #495F30",
"'  c #4C5E3A",
"]  c #4B583E",
"[  c #4E5E3D",
"{  c #4B642F",
"}  c #4A6031",
"|  c #4C6331",
" . c #4C6430",
".. c #4E6632",
"X. c #4D6830",
"o. c #4E6931",
"O. c #4F6A33",
"+. c #4E613A",
"@. c #506835",
"#. c #52653D",
"$. c #576F3F",
"%. c #547332",
"&. c #567533",
"*. c #567137",
"=. c #577336",
"-. c #557434",
";. c #587735",
":. c #5E7437",
">. c #597836",
",. c #5E713A",
"<. c #607737",
"1. c #671143",
"2. c #631642",
"3. c #691345",
"4. c #6C1246",
"5. c #691746",
"6. c #601840",
"7. c #631843",
"8. c #641844",
"9. c #6F1548",
"0. c #6F1649",
"q. c #721349",
"w. c #74134A",
"e. c #78114C",
"r. c #7A114D",
"t. c #7A134E",
"y. c #7E104F",
"u. c #79154E",
"i. c #78184E",
"p. c #7C1850",
"a. c #4D3841",
"s. c #5D3848",
"d. c #673E41",
"f. c #68304A",
"g. c #68334C",
"h. c #6A334C",
"j. c #703551",
"k. c #574442",
"l. c #78485D",
"z. c #78495D",
"x. c #625751",
"c. c #657F47",
"v. c #60704F",
"b. c #627150",
"n. c #647451",
"m. c #717E59",
"M. c #727F5D",
"N. c #7D4B60",
"B. c #7E4C61",
"V. c #890C53",
"C. c #8B0D55",
"Z. c #8D0F57",
"A. c #900F58",
"S. c #8E1057",
"D. c #881456",
"F. c #851955",
"G. c #8B1A57",
"H. c #901356",
"J. c #931258",
"K. c #92105A",
"L. c #A00F61",
"P. c #B10C6A",
"I. c #B30D6B",
"U. c #A11062",
"Y. c #8A3D60",
"T. c #C90B77",
"R. c #CF0678",
"E. c #D00679",
"W. c #D2087A",
"Q. c #D2087B",
"!. c #D5087D",
"~. c #D6087D",
"^. c #D3147D",
"/. c #D3157E",
"(. c #995559",
"). c #9C565A",
"_. c #8E4062",
"`. c #804E64",
"'. c #8E5C70",
"]. c #B34378",
"[. c #B5457A",
"{. c #A45F7C",
"}. c #BF666B",
"|. c #A5607D",
" X c #C0656B",
".X c #63873A",
"XX c #64883B",
"oX c #6C953D",
"OX c #6D963F",
"+X c #67814A",
"@X c #7A9B54",
"#X c #7B9C55",
"$X c #7AAD42",
"%X c #7BAE42",
"&X c #79A944",
"*X c #7DB044",
"=X c #7EB044",
"-X c #7FB245",
";X c #7E9365",
":X c #7F9466",
">X c #80B246",
",X c #80B048",
"<X c #80B148",
"1X c #B5938A",
"2X c None",
/* pixels */
"2X2X2X2X2XQ.P.L.U.I.W.2X2X2X2X2X",
"2X2X2X!.Z.Z 1 - 3 4 D V.R.2X2X2X",
"2X2XT.2.+ V 4.e.t.5.< 5 J.}.2X2X",
"2X~.8.y 9.w.C 6 S K.u.D.(.<.$X2X",
"2XS.; 0.7.7 q.r.y.A.3.a =.* %.2X",
"^.A 8 i.M F.F @ 6.1.. _ @.t I ,X",
"]., f.H j.K   : _.k.' c.+X[ f #X",
"{.> l.N B.i a.'.1Xm.] n.Q b.s :X",
"|.u z.B N.s.`.x.M.9 $ b.b v.r ;X",
"[.g g.J h.Y.j $.W = T #.m +.e @X",
"/.G h p.2 p -.E w R *.x | v n <X",
"2XC.O G.d.& ( X.o.` c ~ ` o ;.2X",
"2XE.H.).,.O.U k k P ..} r ! -X2X",
"2X2X X:.X z )  .{ / l 0 ^ &X2X2X",
"2X2X2X%X&.Y d q # % L >.>X2X2X2X",
"2X2X2X2X2X=XOXXX.XoX*X2X2X2X2X2X"
};
