/* XPM */
static char *bitcoin64[] = {
/* columns rows colors chars-per-pixel */
"64 64 223 2 ",
"   c #130F12",
".  c #141515",
"X  c #161815",
"o  c #171719",
"O  c #1A1519",
"+  c #171918",
"@  c #1B1B1C",
"#  c #181616",
"$  c #0F1110",
"%  c #211A1F",
"&  c #23171E",
"*  c #1E211D",
"=  c #21241E",
"-  c #23291D",
";  c #1F1F20",
":  c #231C21",
">  c #2B1C25",
",  c #2D1824",
"<  c #341C2A",
"1  c #39192C",
"2  c #3E1D30",
"3  c #2D0F20",
"4  c #1F2020",
"5  c #212122",
"6  c #2B2127",
"7  c #262A23",
"8  c #292D25",
"9  c #2D2329",
"0  c #2B2D29",
"q  c #31222B",
"w  c #34272E",
"e  c #2C3424",
"r  c #2E3923",
"t  c #2D3129",
"y  c #313C25",
"u  c #333B2B",
"i  c #303629",
"p  c #3B2B33",
"a  c #3B2731",
"s  c #3F3137",
"d  c #42152F",
"f  c #4B1634",
"g  c #421B31",
"h  c #4B1A36",
"j  c #4E1B39",
"k  c #471732",
"l  c #56183B",
"z  c #580F38",
"x  c #462B38",
"c  c #463439",
"v  c #532F3F",
"b  c #354226",
"n  c #36412A",
"m  c #39462B",
"M  c #3B4B2B",
"N  c #394B25",
"B  c #3B4431",
"V  c #3E4933",
"C  c #3F512C",
"Z  c #41542D",
"A  c #465B2E",
"S  c #4A5B37",
"D  c #455139",
"F  c #4B642E",
"G  c #4B6331",
"H  c #4E6831",
"J  c #516B34",
"K  c #556A3F",
"L  c #567335",
"P  c #5A7B35",
"I  c #5C7C39",
"U  c #5A743B",
"Y  c #5E1940",
"T  c #671745",
"R  c #721349",
"E  c #7C134F",
"W  c #781F4F",
"Q  c #7D1650",
"!  c #7B0C4B",
"~  c #563544",
"^  c #572E42",
"/  c #662546",
"(  c #65364C",
")  c #773755",
"_  c #6C3850",
"`  c #76475B",
"'  c #6B4754",
"]  c #596948",
"[  c #5E6950",
"{  c #637B49",
"}  c #677953",
"|  c #606D51",
" . c #675453",
".. c #8C0D55",
"X. c #970D5B",
"o. c #851354",
"O. c #8A1256",
"+. c #8D1358",
"@. c #93125B",
"#. c #99115E",
"$. c #8B335D",
"%. c #9F1262",
"&. c #A90E66",
"*. c #B40D6B",
"=. c #BA0B6F",
"-. c #AA1067",
";. c #BE0D71",
":. c #BB1070",
">. c #973B66",
",. c #8D3D61",
"<. c #AF2B6F",
"1. c #C50B74",
"2. c #CC0B78",
"3. c #D3097C",
"4. c #D9087F",
"5. c #C01073",
"6. c #CD227D",
"7. c #90516C",
"8. c #B45078",
"9. c #BC656A",
"0. c #A15A5E",
"q. c #5E8037",
"w. c #61843A",
"e. c #668B3C",
"r. c #688F3D",
"t. c #6B933E",
"y. c #709D3E",
"u. c #729C41",
"i. c #74984A",
"p. c #6F8159",
"a. c #7B9859",
"s. c #718F4F",
"d. c #75A242",
"f. c #78A644",
"g. c #7CAD44",
"h. c #7DA74C",
"j. c #7FB145",
"k. c #7DA155",
"l. c #798B64",
"z. c #7D9562",
"x. c #81B446",
"c. c #84B947",
"v. c #86BC48",
"b. c #8DBE4B",
"n. c #86B54C",
"m. c #90BC4D",
"M. c #84AB57",
"N. c #8AB756",
"B. c #90BA5F",
"V. c #899E6F",
"C. c #8BAA67",
"Z. c #95BB68",
"A. c #94AB79",
"S. c #9AB876",
"D. c #8DA472",
"F. c #8BC44A",
"G. c #8DC84B",
"H. c #87C149",
"J. c #98CB5D",
"K. c #93C855",
"L. c #9DCC66",
"P. c #9DC86B",
"I. c #9EC472",
"U. c #A5CB7A",
"Y. c #A8D277",
"T. c #A2CF6F",
"R. c #DD0881",
"E. c #DF0781",
"W. c #E50684",
"Q. c #E90687",
"!. c #E90D86",
"~. c #ED0589",
"^. c #EC0A89",
"/. c #E50E85",
"(. c #F0058A",
"). c #F00A8B",
"_. c #E31083",
"`. c #D83B87",
"'. c #D32A82",
"]. c #EE238F",
"[. c #EC3E93",
"{. c #F23F96",
"}. c #ED2C90",
"|. c #AE6B87",
" X c #B9678A",
".X c #BA7591",
"XX c #B45B81",
"oX c #C45786",
"OX c #D95891",
"+X c #D4518C",
"@X c #EC589B",
"#X c #F1519B",
"$X c #F05E9F",
"%X c #CA6C94",
"&X c #D86898",
"*X c #C57596",
"=X c #D8759E",
"-X c #E1659B",
";X c #EC6BA2",
":X c #F26AA5",
">X c #EB77A8",
",X c #F277AB",
"<X c #F678AE",
"1X c #E76BA1",
"2X c #D2A79A",
"3X c #DC84A8",
"4X c #E982AD",
"5X c #E88CB1",
"6X c #F382B1",
"7X c #F48CB7",
"8X c #F596BD",
"9X c #F698BD",
"0X c #D3B1A6",
"qX c #CE9D90",
"wX c #AFD483",
"eX c #B4D58B",
"rX c #B4D889",
"tX c #BBDB94",
"yX c #BCD997",
"uX c #B1CE8D",
"iX c #C2DD9D",
"pX c #C3E09E",
"aX c None",
/* pixels */
"aXaXaXaXaXaXaXaXaXaXaXaXaXaXaXaXaXaXaXaXaXaXaXaXaXaXaXaX~.~.~.~.~.~.~.~.aXaXaXaXaXaXaXaXaXaXaXaXaXaXaXaXaXaXaXaXaXaXaXaXaXaXaXaX",
"aXaXaXaXaXaXaXaXaXaXaXaXaXaXaXaXaXaXaXaXaXaXaX~.~.~.~.~.~.~.~.~.~.~.~.~.~.~.~.~.~.aXaXaXaXaXaXaXaXaXaXaXaXaXaXaXaXaXaXaXaXaXaXaX",
"aXaXaXaXaXaXaXaXaXaXaXaXaXaXaXaXaXaXaXaX~.~.~.~.~.~.W.R.3.1.;.:.:.;.1.3.R.Q.~.~.~.~.~.~.aXaXaXaXaXaXaXaXaXaXaXaXaXaXaXaXaXaXaXaX",
"aXaXaXaXaXaXaXaXaXaXaXaXaXaXaXaXaXaX~.~.~.~.Q.3.*.O.T h 1 < > > 9 9 < 2 j T O.*.3.Q.~.~.~.~.aXaXaXaXaXaXaXaXaXaXaXaXaXaXaXaXaXaX",
"aXaXaXaXaXaXaXaXaXaXaXaXaXaXaXaX~.~.~.~.E.&.R d & + + @ @ @ 5 * ; 4 5 4 4 4 4 : 1 R &.4.~.~.~.~.aXaXaXaXaXaXaXaXaXaXaXaXaXaXaXaX",
"aXaXaXaXaXaXaXaXaXaXaXaXaXaXaX~.~.~.3.X.f : + + + + @ @ @ @ @ 5 ; 4 5 5 5 5 5 @ @ + & k X.3.~.~.~.aXaXaXaXaXaXaXaXaXaXaXaXaXaXaX",
"aXaXaXaXaXaXaXaXaXaXaXaXaX~.~.~.W.X.f @ + + o + @ + @ + @ @ @ @ ; ; ; 5 5 5 5 5 ; @ o X . d X.E.~.~.Q.aXaXaXaXaXaXaXaXaXaXaXaXaX",
"aXaXaXaXaXaXaXaXaXaXaXaX~.~.~.;.Y : + + @ + @ + o @ o @ @ @ @ @ @ @ ; 4 5 5 5 5 : @ @ o .     z =.~.~.~.aXaXaXaXaXaXaXaXaXaXaXaX",
"aXaXaXaXaXaXaXaXaXaXaX~.~.W.@.1 @ @ + + + @ + + + + + o O O : : : > : 4 5 4 5 5 5 5 4 @ + o . $ 3 ..W.~.(.aXaXaXaXaXaXaXaXaXaXaX",
"aXaXaXaXaXaXaXaXaXaX~.~.R.Q : * ; @ @ @ + + + o + , d T O.%.&.*.*.-.-.o.T g > 5 5 5 5 ; @ + X . $   ! W.~.!.aXaXaXaXaXaXaXaXaXaX",
"aXaXaXaXaXaXaXaXaX~.~.3.T : ; ; @ @ @ @ @ + @ k o.;.3.~.).(.~.~.~.~.~.~.W.R.-.g 5 5 5 ; ; @ + . . O ..W.!.9.b.aXaXaXaXaXaXaXaXaX",
"aXaXaXaXaXaXaXaX~.~.3.T 4 4 4 @ ; @ @ @ : l &.4.~.~.R.1.&...E R R Q O.&.1.W.).&.9 4 5 5 > h l < & ..Q.!.9.m.F.F.aXaXaXaXaXaXaXaX",
"aXaXaXaXaXaXaX~.^.R.T 5 5 4 5 ; ; @ @ 2 #.E.(.W.*.E f , @ O + + + + @ : , R W.3.2 ; 5 j &.W.W.2.=.W.!.9.b.H.H.F.F.aXaXaXaXaXaXaX",
"aXaXaXaXaXaX~.~.W.Q 9 5 5 5 5 4 4 : T 2.(.W.&.l , + + + + + @ + + @ o o : +.Q.2.< @ j 1.~.R.3.Q.(.Q.9.m.H.L F v.F.F.aXaXaXaXaXaX",
"aXaXaXaXaXaX~.~.#.6 4 5 5 5 5 4 6 o.R.~.1.T > + @ + + @ + @ @ O + @ + : O.W.Q.o.4 j 1.).2.Y a #.4.9.m.v.L X $ P F.F.aXaXaXaXaXaX",
"aXaXaXaXaX~.~.;.< 4 5 4 5 : 5 9 @.~.W.&.g @ @ @ @ @ + o + + o O + + : o.W.Q.+.: h 1.~.1.j 4 : < ,.m.G.t.= . $ - y.F.F.aXaXaXaXaX",
"aXaXaXaX~.~.E.T * ; ; 4 5 4 9 @.Q.W.O.9 ; @ @ ; @ o @ : d Y R E E R #.W.Q.+.% k 1.(.2.j ; 5 5 5 r q.F.g.8 . . $ N x.F.F.aXaXaXaX",
"aXaXaXaX~.~.#.: @ 4 ; ; 5 5 Q Q.W.o.> 4 ; ; ; @ ; 2 E *.4.Q.~.~.(.~.(.W.+.: k 1.(.1.j @ @ ; 5 5 * r g.H.M o X . X P F.F.aXaXaXaX",
"aXaXaX~.~.3.h @ @ : ; ; 4 Y R.~.+.9 4 4 4 4 @ < o.3.~.~.E.2.*.&.&.*.&.R & k 1.(.1.f @ 4 ; ; * 5 * C j.H.m O + o . r x.F.F.aXaXaX",
"aXaXaX~.~.@.@ @ @ @ @ * 1 ;.).-.q 4 5 5 4 4 l ;.~.~.1.Q f , : & @ & & + k 1.(.1.f @ @ @ @ ; 4 @ M f.G.t.7 ; @ + . . P F.F.aXaXaX",
"aXaX~.~.E.f O @ @ @ @ : o.~.2.j 4 5 4 : 5 T 3.~.3.Q < ; + o + @ + + + k 1.(.1.f + @ @ @ @ % * M f.G.d.m 5 4 ; @ # . y c.F.F.aXaX",
"aXaX~.~.&.: @ O + @ @ g 3.~.Q 4 4 5 5 : T R.~.*.h ; ; + ; @ ; + @ # k 1.(.1.f # @ + @ @ @ @ m f.G.d.n 5 5 5 ; ; @ # = r.F.F.aXaX",
"aXaX~.^.R + + @ + @ @ o.^.5.< ; 4 5 4 x R.).-.2 ; @ ; ; ; @ ; o + , :.).2.f + o @ o o @ # m f.G.d.n @ 5 : 5 5 5 @ @ o A F.F.aXaX",
"aX].].'.2 + + o + + < 6.].W * @ ; ; 9 <.}.:.x 5 ; ; ; ; @ ; + ; + W ].6.j + + @ + @ o o m h.K.f.b * i i 7 4 5 5 5 % + i x.K.K.aX",
"aX[.{.<.: + @ @ o # / [.`.g @ * ; ; _ [.`.^ : 5 5 4 4 ; ; ; + o @ $.[.<.# o o + + + + V M.J.M.y = K M.n.s.u 4 4 5 5 ; 5 i.J.J.aX",
"aX#X#X,.@ + o + @ @ >.#X>.% @ @ ; 9 oX#X,.6 5 5 6 4 5 4 ; ; ; ; @ ) #X+Xx # @ + + + m M.L.M.m 5 { L.L.L.L.a.7 4 5 5 5 @ { L.L.aX",
"aX$X$X( o + @ + X > oX$X_ + @ @ ; ^ #X+Xx 4 ; ; 5 5 4 5 ; ; ; ; + x OX$XoXc o + o B B.T.M.n 5 { P.P.{ K P.P.u ; 5 5 5 ; K P.T.aX",
"aX:X-Xx + @ + @ X x -X-Xx # + @ ; 7.;X8.5 ; 4 ; 5 5 5 5 ; ; ; ; 9 7.;X:XqXC.V @ D C.Y.C.u 5 p.T.U.{ * 8 C.U.] ; 5 5 5 5 V I.Y.aX",
",X,X&Xp @ + + + X ~ >X&X9 o + @ > oX>X` ; ; ; ; 5 5 4 4 4 ; ; 9 7.>X,X2XU.wXS.z.S.wXC.B . ] U.Y.} * @ * z.rX} 4 ; 5 5 ; u S.rXwX",
"6X6X%Xw @ @ @ + o ` 6X X5 o + + p =X4X~ o ; ; ; 5 5 4 w ' ` ' 7.<X6X2XeXeXU.eXeXrXD.V # * V.tXl.= @ @ @ p.eXz.4 ; 4 5 4 t A.rXrX",
"7X7X*X9 @ @ @ + o ` 8X|.% + + + ~ 3X3Xs @ ; ; ; ; ; s |.5X7X5X7X8X0XyXeXp.B [ p.[ t o + = D.yX[ o @ + + } yXD.5 ; ; : ; i A.tXtX",
"8X8X.X9 @ 4 @ @ o 7.9X|.% + @ + ~ 3X3Xp + ; ; ; ; s .X8X5X.X5X8X0XiXyXl.9 @ @ @ + o @ o = V.pX} o + + + | iXA.5 ; ; ; ; t A.pXyX",
"8X9X.X9 ; o ; ; * 7.9X|.: + + o ~ 5X3Xp o @ ; ; s .X9X3X .t ` 2XiXiXl.w ; ; ; ; @ @ @ + % V.pX} ; O @ o [ iXA.5 @ @ * ; 7 A.pXiX",
"7X8X*Xt ; ; ; ; + ` 7X X: o @ o s 3X3Xc o @ + p  X7X3X' 5 4 4 [ uXuXS ; ; ; ; ; ; @ @ o 5 A.yX| o o @ o } tXV.= @ @ : @ 0 A.yXtX",
"<X6X%Xw ; ; ; ; + ' 4X%X6 + + + 9 %X<X' o + a XX6X=X' ; 5 5 5 0 A.eX[ : ; ; ; o @ @ @ @ e S.uXS o + o + p.tXl.@ @ @ @ 4 t S.rXrX",
",X<X&Xs ; ; ; ; + ~ >X&Xp + + + 4 8.,X7.@ w XX,X=X_ ; ; 4 : @ ] U.U.S : ; ; ; ; ; @ @ @ D U.S.u o + @ @ a.wX} o @ @ @ @ u S.wXwX",
"aX:X;X~ 4 4 5 ; * w %X;X( o @ o + ` ;XoX^ XX;X&X( ; o ; @ 5 K S.wXz.t 5 ; ; ; ; @ ; @ @ { Y.C.5 + @ o 8 C.Y.K O o @ @ o V I.Y.aX",
"aX$X@X( ; 5 5 5 4 4 8.$X,.O + @ + w +X$X+X$XOX( ; ; ; + * S Z.T.z.u 5 5 ; ; 4 ; 5 4 @ i M.T.] @ + + o m P.Z.u o + + @ @ S U.T.aX",
"aX#X#X,.4 5 5 4 ; : ) #X8., @ + o @ ,.#X#X+X^ ; o + o ; S Z.L.a.u 4 5 5 5 5 4 4 5 @ * ] L.B.i @ @ @ o K L.a.7 + @ + + + { L.L.aX",
"aX[.#X<.6 4 5 : : : x `.[.^ @ @ + + a `.`./ ; + + o ; C N.J.i.u ; 4 5 5 5 5 5 4 5 @ M n.J.] ; @ @ o 5 h.J.U + + o @ o * i.J.J.aX",
"aX].].'.g @ ; 5 5 5 9 <.].<.: @ ; o o / Y @ + + # @ A n.K.i.e @ ; ; 4 4 5 5 5 5 : i i.K.i.e @ @ @ o Z m.n.b o @ O + o y n.K.K.aX",
"aXaX^.^.R @ ; ; 5 5 4 Y R.R.Y ; @ @ @ @ @ @ @ + # Z j.G.r.e + % @ ; ; ; 5 5 5 5 u u.G.g.M ; ; @ @ 4 u.G.e.% o o @ @ @ A b.F.aXaX",
"aXaX~.~.&.& @ ; ; 5 4 9 -.~.*.> ; @ @ o + @ o @ Z x.F.t.8 + + @ @ ; ; ; 5 ; 5 C u.G.j.A 4 ; ; @ @ A F.x.M o + @ + @ = r.F.F.aXaX",
"aXaX~.~.R.f o @ ; 5 5 4 j R.~.o.; @ @ @ @ + + C x.G.g.m + + + + @ @ @ @ 5 n I x.G.g.A 5 4 4 ; ; i f.F.I = + @ + + o b c.F.F.aXaX",
"aXaXaX~.~.X.O o @ @ 5 5 7 o.Q.R.T 4 4 @ @ + @ Z g.F.F.d.P Z y e e e M G e.j.G.F.u.n 5 5 5 5 @ 7 e.G.f.r @ @ @ + + @ I F.F.aXaXaX",
"aXaXaX~.~.3.d . + @ ; ; 4 q -.~.2.l @ @ @ @ @ + e P g.F.F.F.c.x.j.j.v.F.G.H.u.G 7 ; 5 5 5 5 7 U v.v.Z ; @ @ @ @ + b x.F.F.aXaXaX",
"aXaXaXaX~.~.X.O . + @ ; ; 9 -.Q.!.0.M @ : @ @ + o @ r F e.d.x.c.v.x.j.u.I Z 8 4 ; ; 5 5 : 7 K H.v.L 5 @ * @ @ @ * w.F.F.aXaXaXaX",
"aXaXaXaXQ.~.W.z $ . o @ , @.W.!.9.m.g.Z 5 @ @ @ @ + o # @ - r b n b e * @ @ @ @ ; ; ; ; t I H.H.I 7 ; ; @ % @ + Z c.F.F.aXaXaXaX",
"aXaXaXaXaX~.~.=.3 . . & ..Q.!.9.b.F.G.x.L 7 @ @ + + @ + + o o o o o o + @ @ @ @ @ ; : n u.F.v.I 0 5 ; ; ; @ @ e d.F.F.aXaXaXaXaX",
"aXaXaXaXaXaX~.~.X.  & ..Q.!.9.m.F.w.r.F.v.u.C 5 @ @ @ + + o @ @ @ + @ + @ @ @ + @ t J g.F.c.J 7 4 5 5 ; ; @ 5 w.F.F.aXaXaXaXaXaX",
"aXaXaXaXaXaX~.~.W.! ..Q.Q.9.b.H.I 8 0 L x.G.c.e.Z 7 @ o o o + + o o # + + @ * r H d.F.F.u.C 5 5 5 5 5 ; 4 5 J H.F.F.aXaXaXaXaXaX",
"aXaXaXaXaXaXaX~.~.W.Q.Q.9.b.F.P 5 ; : 7 V r.v.G.c.u.L Z r - = * * % - - b S w.g.F.G.g.L t ; 5 5 5 5 5 5 * S c.F.F.aXaXaXaXaXaXaX",
"aXaXaXaXaXaXaXaX~.~.Q.9.m.H.L * @ @ : 5 5 7 C s.x.F.G.v.x.d.t.r.e.t.y.d.c.F.G.H.f.L r 4 ; ; : 4 5 5 5 5 S j.F.F.aXaXaXaXaXaXaXaX",
"aXaXaXaXaXaXaXaXaX!.9.m.F.L X . o @ @ 5 5 5 @ 7 n J t.g.c.F.F.G.G.G.F.F.x.u.q.Z 8 @ @ @ ; @ * ; 5 5 5 S j.G.F.aXaXaXaXaXaXaXaXaX",
"aXaXaXaXaXaXaXaXaXaXm.F.H.F X $ . o @ @ 5 5 5 5 % * 5 e n Z G J J H A M y 7 @ o + @ @ @ @ 4 @ 4 ; 7 J x.F.F.aXaXaXaXaXaXaXaXaXaX",
"aXaXaXaXaXaXaXaXaXaXaXF.F.v.q.- . o + @ @ 4 5 5 5 5 5 @ @ @ + @ + # + + o o + + @ + @ @ @ ; @ : i q.b.G.F.aXaXaXaXaXaXaXaXaXaXaX",
"aXaXaXaXaXaXaXaXaXaXaXaXF.F.F.y.N # . # @ * 5 5 5 5 5 ; 5 @ * @ + @ + + @ o @ + + @ + @ @ @ = Z d.F.F.F.aXaXaXaXaXaXaXaXaXaXaXaX",
"aXaXaXaXaXaXaXaXaXaXaXaXaXF.F.F.c.q.r X + @ @ : 5 5 5 5 5 ; ; @ @ @ @ + + @ o @ + + o O @ n w.v.F.F.F.aXaXaXaXaXaXaXaXaXaXaXaXaX",
"aXaXaXaXaXaXaXaXaXaXaXaXaXaXaXF.F.F.x.P N * + @ ; 5 5 5 5 5 4 @ @ @ @ @ @ + @ o o + = b P x.F.F.F.aXaXaXaXaXaXaXaXaXaXaXaXaXaXaX",
"aXaXaXaXaXaXaXaXaXaXaXaXaXaXaXaXF.F.F.F.x.r.F y 5 5 ; 4 : ; : @ : @ @ + o o o = r F t.x.F.F.F.F.aXaXaXaXaXaXaXaXaXaXaXaXaXaXaXaX",
"aXaXaXaXaXaXaXaXaXaXaXaXaXaXaXaXaXaXF.F.F.F.F.j.u.U A m y t 8 7 7 7 8 e b A L t.j.F.F.F.F.F.aXaXaXaXaXaXaXaXaXaXaXaXaXaXaXaXaXaX",
"aXaXaXaXaXaXaXaXaXaXaXaXaXaXaXaXaXaXaXaXF.F.F.F.G.G.F.c.j.f.u.u.y.y.f.x.c.b.F.F.F.F.F.F.aXaXaXaXaXaXaXaXaXaXaXaXaXaXaXaXaXaXaXaX",
"aXaXaXaXaXaXaXaXaXaXaXaXaXaXaXaXaXaXaXaXaXaXaXF.F.F.F.F.F.G.F.F.F.F.F.F.F.F.F.F.F.aXaXaXaXaXaXaXaXaXaXaXaXaXaXaXaXaXaXaXaXaXaXaX",
"aXaXaXaXaXaXaXaXaXaXaXaXaXaXaXaXaXaXaXaXaXaXaXaXaXaXaXaXF.F.F.F.F.F.F.F.aXaXaXaXaXaXaXaXaXaXaXaXaXaXaXaXaXaXaXaXaXaXaXaXaXaXaXaX"
};
