/* XPM */
static char *bitcoin32[] = {
/* columns rows colors chars-per-pixel */
"32 32 189 2 ",
"   c #131515",
".  c #151917",
"X  c #171619",
"o  c #181719",
"O  c #161918",
"+  c #1B1B1C",
"@  c #211A1F",
"#  c #1D201E",
"$  c #20241E",
"%  c #242A1E",
"&  c #2E3B1F",
"*  c #1F1F20",
"=  c #231C21",
"-  c #2C1C25",
";  c #2D1422",
":  c #301927",
">  c #371629",
",  c #351B2A",
"<  c #391B2C",
"1  c #3E1D31",
"2  c #1F2120",
"3  c #212222",
"4  c #292126",
"5  c #262B22",
"6  c #282E23",
"7  c #2D2428",
"8  c #2E282B",
"9  c #35242C",
"0  c #38272F",
"q  c #2B3324",
"w  c #2E3C20",
"e  c #313C25",
"r  c #323A2A",
"t  c #363C30",
"y  c #3C2D34",
"u  c #460F2E",
"i  c #45112F",
"p  c #441631",
"a  c #431A31",
"s  c #4A1B36",
"d  c #4F1A38",
"f  c #57183C",
"g  c #60133F",
"h  c #452936",
"j  c #542B3E",
"k  c #4A333D",
"l  c #37432A",
"z  c #3B4A2A",
"x  c #374529",
"c  c #3B4333",
"v  c #42542F",
"b  c #465C2F",
"n  c #485F2F",
"m  c #475B30",
"M  c #4A5C35",
"N  c #49543D",
"B  c #4D5C3D",
"V  c #445530",
"C  c #464F3C",
"Z  c #4C672E",
"A  c #4C6432",
"S  c #4F6A32",
"D  c #526E33",
"F  c #52653C",
"G  c #577436",
"H  c #587636",
"J  c #5A7A36",
"K  c #5D7D38",
"L  c #5F1B41",
"P  c #7D0D4D",
"I  c #651542",
"U  c #6C1446",
"Y  c #6F1649",
"T  c #661845",
"R  c #75154C",
"E  c #7B134E",
"W  c #701748",
"Q  c #5E2242",
"!  c #4E3741",
"~  c #583C48",
"^  c #573143",
"/  c #613E4D",
"(  c #792D52",
")  c #505B44",
"_  c #76445A",
"`  c #5D694E",
"'  c #5F6B50",
"]  c #5E7643",
"[  c #73655F",
"{  c #677952",
"}  c #647154",
"|  c #657B4D",
" . c #7C5163",
".. c #980F5D",
"X. c #821252",
"o. c #8A1256",
"O. c #95115C",
"+. c #88315B",
"@. c #9C1160",
"#. c #AA0D66",
"$. c #AE0D68",
"%. c #B60C6D",
"&. c #BB0B6F",
"*. c #BD0C70",
"=. c #B1146C",
"-. c #9D3968",
";. c #AD3A71",
":. c #BB3D79",
">. c #A03A6A",
",. c #C40B74",
"<. c #C90A76",
"1. c #C70774",
"2. c #DB077F",
"3. c #D50B7C",
"4. c #D6077C",
"5. c #C51977",
"6. c #CA197A",
"7. c #A45B5F",
"8. c #854C65",
"9. c #9F4A70",
"0. c #8E5A70",
"q. c #955D74",
"w. c #9D486D",
"e. c #B9487B",
"r. c #A6597A",
"t. c #B6537E",
"y. c #927068",
"u. c #BE666B",
"i. c #B26165",
"p. c #A2657E",
"a. c #62843A",
"s. c #678C3C",
"d. c #6C953E",
"f. c #6F9A3F",
"g. c #719C3F",
"h. c #6A874A",
"j. c #6E9540",
"k. c #719C40",
"l. c #789C4E",
"z. c #6D8055",
"x. c #718A54",
"c. c #73885A",
"v. c #7A9E50",
"b. c #76A441",
"n. c #7AA343",
"m. c #7AA844",
"M. c #7CA948",
"N. c #7FB245",
"B. c #7DA251",
"V. c #82AB47",
"C. c #81B546",
"Z. c #85B74B",
"A. c #91BD4E",
"S. c #84A85A",
"D. c #8A9E70",
"F. c #8AA965",
"G. c #8DB164",
"H. c #95B372",
"J. c #99B775",
"K. c #8CC54A",
"L. c #8EC84B",
"P. c #9ECF63",
"I. c #A8D476",
"U. c #DC1883",
"Y. c #ED0589",
"T. c #EB0C87",
"R. c #F1048B",
"E. c #C63F80",
"W. c #BD7492",
"Q. c #B96589",
"!. c #C45686",
"~. c #CA588A",
"^. c #F44A9A",
"/. c #C86B92",
"(. c #D07D9F",
"). c #C26E91",
"_. c #E06498",
"`. c #F567A5",
"'. c #F57DB0",
"]. c #A1B681",
"[. c #D4A89C",
"{. c #F591BA",
"}. c #E08AAB",
"|. c #DCB6AA",
" X c #B3D888",
".X c #B3C990",
"XX c #BEDC98",
"oX c #A9C580",
"OX c None",
/* pixels */
"OXOXOXOXOXOXOXOXOXOXOXOXR.R.R.Y.Y.Y.R.R.OXOXOXOXOXOXOXOXOXOXOXOX",
"OXOXOXOXOXOXOXOXOXOXY.U.&...X.R E X.@.*.U.Y.OXOXOXOXOXOXOXOXOXOX",
"OXOXOXOXOXOXOXOXY.,.X.p = + + + 2 2 3 4 p E *.Y.OXOXOXOXOXOXOXOX",
"OXOXOXOXOXOXR.4.P : O O X X o + # # 2 2 +   ; P 4.Y.OXOXOXOXOXOX",
"OXOXOXOXOXY.,.d + O O O = i g R Y I s 4 3 + .   i <.T.OXOXOXOXOX",
"OXOXOXOXY.%.1 + + + , E %.1.%.$.#.%.,...4 3 < > i ,.u.A.OXOXOXOX",
"OXOXOXR.,.1 2 2 = U ,.$.I > = o + = Y <.< T ,.,.3.u.n.b.K.OXOXOX",
"OXOXOX3.d 2 2 4 o.,.U = O   o o o p *.X.U <.W L 7.V.w & N.OXOXOX",
"OXOXY.X.# # 3 o.,.s # + - I ..$.#.1.o.U ,.U 2 * z m.6   Z K.OXOX",
"OXOX,.: + # T <.d # # T *.%.o.U U f U <.I + * * A b.q X $ b.OXOX",
"OXY.X.O + : *.R 2 3 R <.Y - + . X g ,.I + + + m m.b = * . S K.OX",
"OXU.a O # W =.- # Q 6.L 2 2 # + a 5.U o X X m m.b q 5 * + e Z.OX",
"^.:.= o @ ;.( O 4 e.+.2 2 2 2 . j :.1 X X M S.m ] S.h.7 = 5 B.P.",
"`.w.o O 9 !.h . ^ !.0 2 3 2 . . ^ _.y.q F G.F | F.F G.t 3 3 x.I.",
"'.8.o X k ).7 X 8.r.+ 3 * 7 ! _ /.[.oXH.H.N N H.l # F.) * * {  X",
"{. .+ O ~ ).4 X q.0.o + 8 p.(.}.|.].N C t O ` D.+ + D.' + + } XX",
"{. .+ + ~ ).4 O 0.0.. 3 p.W.! [ .X) o o + X ` D.+ # D.` o o } XX",
"{.8.2 + k ).9   _ Q.8 9.Q.y * t J.C * = + + { c.o 3 F.B o * }  X",
"`.w.2 2 9 !.^ . h ~.!.t.9 o r S.c.5 = * + 6 F.B X q F.l o o x.I.",
"^.:.7 2 3 -.+.O + -.:.9 X q l.h.6 * 3 2 + F B.6 X M B.# o 3 B.P.",
"OXU.p 2 2 Q 5.< O : , O q d.a.5 * * = 2 V M.V + + j.D o o e Z.OX",
"OXR.X.+ * 4 #.O.* O O 6 f.f.5 o + * q D m.A 2 + m b.q o o D K.OX",
"OXOX1.; + # s <.W + O 6 a.b.s.J G a.b.j.z 3 = x m.b + o % b.OXOX",
"OXOXY.P   + s 3.i.A + X + w Z J J D z 5 2 3 c b.G $ + o G K.OXOX",
"OXOXOX4.i i ,.u.V.m.K q + X o o O X X + 5 A m.H 5 * * l N.OXOXOX",
"OXOXOXY.1.<.u.m.l l s.b.G z % # $ % e Z k.k.m 3 * = r b.K.OXOXOX",
"OXOXOXOXT.u.n.& o = 5 v a.b.b.k.k.b.b.s.b 6 * = * r j.K.OXOXOXOX",
"OXOXOXOXOXA.b.e   X * 2 3 6 e z z e q + X O + + z b.K.OXOXOXOXOX",
"OXOXOXOXOXOXK.C.S % o + = * * + o o o o O o 6 D C.K.OXOXOXOXOXOX",
"OXOXOXOXOXOXOXOXK.b.D l 5 3 * + + o o $ e D b.K.OXOXOXOXOXOXOXOX",
"OXOXOXOXOXOXOXOXOXOXK.C.k.a.G A A G a.g.C.K.OXOXOXOXOXOXOXOXOXOX",
"OXOXOXOXOXOXOXOXOXOXOXOXL.L.K.K.K.L.L.L.OXOXOXOXOXOXOXOXOXOXOXOX"
};
